<svg id="bold" enable-background="new 0 0 24 24" height="512" viewBox="0 0 24 24" width="512" xmlns="http://www.w3.org/2000/svg"><path d="m17.35 11.56c-.66 1.48-.72 2.97-.18 4.44h-3.57c-.01-.03-.02-.07-.02-.1-.12-.79-.07-1.57.21-2.35s.7-1.58.95-2.44c.25-.85-.01-1.7-.24-2.61-.06.87-.26 1.71-.62 2.48-.34.78-.85 1.46-1.28 2.27s-.65 1.79-.65 2.72v.03h-5.86c.33-2.36 1.24-4.57 2.73-6.57l-2.95.25c-.47.04-.95-.13-1.3-.45s-.55-.78-.55-1.26v-.86c0-1.19.8-2.24 1.94-2.57l5.02-1.59v-2.2c0-.28.16-.54.41-.67.26-.13.56-.1.79.07l2.23 1.67c3.22 2.01 4.51 6.21 2.94 9.74z"/><path d="m13.42 18.63-.26.29c-.2-.12-.28-.2-.36-.29z"/><path d="m19.25 21.5h-14.5c-.414 0-.75-.336-.75-.75v-1.25c0-.944.748-2 1.75-2h12.5c1.002 0 1.75 1.056 1.75 2v1.25c0 .414-.336.75-.75.75z"/><path d="m21.25 24h-18.5c-.414 0-.75-.336-.75-.75v-1.5c0-.965.785-1.75 1.75-1.75h16.5c.965 0 1.75.785 1.75 1.75v1.5c0 .414-.336.75-.75.75z"/></svg>